<svg width="28" height="28" viewBox="0 0 28 28" fill="none" xmlns="http://www.w3.org/2000/svg">
<path d="M14 3.3494C17.4458 3.3494 17.9157 3.3494 19.3253 3.3494C20.5783 3.3494 21.2048 3.66265 21.6747 3.81928C22.3012 4.13253 22.7711 4.28916 23.241 4.75904C23.7108 5.22892 24.0241 5.6988 24.1807 6.3253C24.3374 6.79518 24.494 7.42169 24.6506 8.6747C24.6506 10.0843 24.6506 10.3976 24.6506 14C24.6506 17.6024 24.6506 17.9157 24.6506 19.3253C24.6506 20.5783 24.3374 21.2048 24.1807 21.6747C23.8675 22.3012 23.7108 22.7711 23.241 23.241C22.7711 23.7108 22.3012 24.0241 21.6747 24.1807C21.2048 24.3374 20.5783 24.494 19.3253 24.6506C17.9157 24.6506 17.6024 24.6506 14 24.6506C10.3976 24.6506 10.0843 24.6506 8.6747 24.6506C7.42169 24.6506 6.79518 24.3374 6.3253 24.1807C5.6988 23.8675 5.22892 23.7108 4.75904 23.241C4.28916 22.7711 3.9759 22.3012 3.81928 21.6747C3.66265 21.2048 3.50602 20.5783 3.3494 19.3253C3.3494 17.9157 3.3494 17.6024 3.3494 14C3.3494 10.3976 3.3494 10.0843 3.3494 8.6747C3.3494 7.42169 3.66265 6.79518 3.81928 6.3253C4.13253 5.6988 4.28916 5.22892 4.75904 4.75904C5.22892 4.28916 5.6988 3.9759 6.3253 3.81928C6.79518 3.66265 7.42169 3.50602 8.6747 3.3494C10.0843 3.3494 10.5542 3.3494 14 3.3494ZM14 1C10.3976 1 10.0843 1 8.6747 1C7.26506 1 6.3253 1.31325 5.54217 1.62651C4.75904 1.93976 3.9759 2.40964 3.19277 3.19277C2.40964 3.9759 2.09639 4.60241 1.62651 5.54217C1.31325 6.3253 1.15663 7.26506 1 8.6747C1 10.0843 1 10.5542 1 14C1 17.6024 1 17.9157 1 19.3253C1 20.7349 1.31325 21.6747 1.62651 22.4578C1.93976 23.241 2.40964 24.0241 3.19277 24.8072C3.9759 25.5904 4.60241 25.9036 5.54217 26.3735C6.3253 26.6868 7.26506 26.8434 8.6747 27C10.0843 27 10.5542 27 14 27C17.4458 27 17.9157 27 19.3253 27C20.7349 27 21.6747 26.6868 22.4578 26.3735C23.241 26.0602 24.0241 25.5904 24.8072 24.8072C25.5904 24.0241 25.9036 23.3976 26.3735 22.4578C26.6868 21.6747 26.8434 20.7349 27 19.3253C27 17.9157 27 17.4458 27 14C27 10.5542 27 10.0843 27 8.6747C27 7.26506 26.6868 6.3253 26.3735 5.54217C26.0602 4.75904 25.5904 3.9759 24.8072 3.19277C24.0241 2.40964 23.3976 2.09639 22.4578 1.62651C21.6747 1.31325 20.7349 1.15663 19.3253 1C17.9157 1 17.6024 1 14 1Z" fill="white"/>
<path d="M14 7.26506C10.241 7.26506 7.26506 10.241 7.26506 14C7.26506 17.759 10.241 20.7349 14 20.7349C17.759 20.7349 20.7349 17.759 20.7349 14C20.7349 10.241 17.759 7.26506 14 7.26506ZM14 18.3855C11.6506 18.3855 9.61446 16.506 9.61446 14C9.61446 11.6506 11.494 9.61446 14 9.61446C16.3494 9.61446 18.3855 11.494 18.3855 14C18.3855 16.3494 16.3494 18.3855 14 18.3855Z" fill="white"/>
<path d="M20.8916 8.6747C21.7566 8.6747 22.4578 7.97346 22.4578 7.10844C22.4578 6.24341 21.7566 5.54217 20.8916 5.54217C20.0265 5.54217 19.3253 6.24341 19.3253 7.10844C19.3253 7.97346 20.0265 8.6747 20.8916 8.6747Z" fill="white"/>
</svg>
