<svg width="72" height="64" viewBox="0 0 72 64" fill="none" xmlns="http://www.w3.org/2000/svg">
<path fill-rule="evenodd" clip-rule="evenodd" d="M66.9299 8.95672L32.5389 39.1274L21.2797 28.0259L3.25307 43.4702L1.63904 41.5863L21.3976 24.6582L32.6375 35.7408L65.2938 7.09186L66.9299 8.95672Z" fill="#BAFF66"/>
<path d="M69.6659 3.54698C70.2816 3.3854 70.8414 3.95095 70.6734 4.56497L68.4064 12.8542C68.2385 13.4682 67.4689 13.6702 67.0211 13.2178L60.9759 7.10987C60.5281 6.65743 60.738 5.88991 61.3537 5.72833L69.6659 3.54698Z" fill="#BAFF66"/>
<path d="M14.0576 43.9692C14.0576 42.5991 15.1683 41.4884 16.5384 41.4884H21.4999C22.87 41.4884 23.9807 42.5991 23.9807 43.9692V59.5382C23.9807 60.9082 22.87 62.0189 21.4999 62.0189H16.5384C15.1683 62.0189 14.0576 60.9082 14.0576 59.5381V43.9692Z" fill="#263147"/>
<path d="M28.1154 47.3911C28.1154 46.021 29.2261 44.9103 30.5962 44.9103H35.5578C36.9278 44.9103 38.0385 46.021 38.0385 47.3911V59.5383C38.0385 60.9084 36.9278 62.019 35.5578 62.019H30.5962C29.2261 62.019 28.1154 60.9084 28.1154 59.5383V47.3911Z" fill="#263147"/>
<path d="M42.1731 39.4072C42.1731 38.0371 43.2837 36.9264 44.6538 36.9264H49.6154C50.9855 36.9264 52.0961 38.0371 52.0961 39.4072V59.5385C52.0961 60.9086 50.9855 62.0192 49.6154 62.0192H44.6538C43.2837 62.0192 42.1731 60.9086 42.1731 59.5385V39.4072Z" fill="#263147"/>
<path d="M56.2307 31.4228C56.2307 30.0527 57.3414 28.942 58.7115 28.942H63.673C65.0431 28.942 66.1538 30.0527 66.1538 31.4228V59.5382C66.1538 60.9083 65.0431 62.0189 63.673 62.0189H58.7115C57.3414 62.0189 56.2307 60.9083 56.2307 59.5382V31.4228Z" fill="#263147"/>
</svg>
