<svg width="72" height="64" viewBox="0 0 72 64" fill="none" xmlns="http://www.w3.org/2000/svg">
    <path fill-rule="evenodd" clip-rule="evenodd"
          d="M66.9299 8.95721L32.5389 39.1279L21.2797 28.0263L3.25307 43.4707L1.63904 41.5868L21.3976 24.6587L32.6375 35.7413L65.2938 7.09235L66.9299 8.95721Z"
          fill="#BAFF66"/>
    <path d="M69.6659 3.54747C70.2816 3.38589 70.8414 3.95144 70.6734 4.56545L68.4064 12.8547C68.2385 13.4687 67.4689 13.6707 67.0211 13.2182L60.9759 7.11036C60.5281 6.65792 60.738 5.8904 61.3537 5.72882L69.6659 3.54747Z"
          fill="#BAFF66"/>
    <path d="M14.0576 43.9697C14.0576 42.5996 15.1683 41.4889 16.5384 41.4889H21.4999C22.87 41.4889 23.9807 42.5996 23.9807 43.9697V59.5386C23.9807 60.9087 22.87 62.0194 21.4999 62.0194H16.5384C15.1683 62.0194 14.0576 60.9087 14.0576 59.5386V43.9697Z"
          fill="#0855DA"/>
    <path d="M28.1154 47.3915C28.1154 46.0215 29.2261 44.9108 30.5962 44.9108H35.5578C36.9278 44.9108 38.0385 46.0215 38.0385 47.3915V59.5388C38.0385 60.9089 36.9278 62.0195 35.5578 62.0195H30.5962C29.2261 62.0195 28.1154 60.9088 28.1154 59.5388V47.3915Z"
          fill="#0855DA"/>
    <path d="M42.1731 39.4077C42.1731 38.0376 43.2837 36.9269 44.6538 36.9269H49.6154C50.9855 36.9269 52.0961 38.0376 52.0961 39.4077V59.539C52.0961 60.909 50.9855 62.0197 49.6154 62.0197H44.6538C43.2837 62.0197 42.1731 60.909 42.1731 59.539V39.4077Z"
          fill="#0855DA"/>
    <path d="M56.2307 31.4233C56.2307 30.0532 57.3414 28.9425 58.7115 28.9425H63.673C65.0431 28.9425 66.1538 30.0532 66.1538 31.4233V59.5387C66.1538 60.9088 65.0431 62.0194 63.673 62.0194H58.7115C57.3414 62.0194 56.2307 60.9088 56.2307 59.5387V31.4233Z"
          fill="#0855DA"/>
</svg>
