<svg width="102" height="77" viewBox="0 0 102 77" fill="none" xmlns="http://www.w3.org/2000/svg">
<path d="M81.7292 31.9623C81.7292 49.6145 67.4192 63.9245 49.7669 63.9245C32.1147 63.9245 17.8047 49.6145 17.8047 31.9623C17.8047 14.31 32.1147 0 49.7669 0C67.4192 0 81.7292 14.31 81.7292 31.9623Z" fill="#263147"/>
<path d="M52.2295 14.5283V20.2035H49.3065V14.5283H52.2295ZM51.8689 45.5236V50.6104H48.9649V45.5236H51.8689ZM54.735 39.3929C54.735 38.659 54.5831 38.0199 54.2794 37.4758C53.9884 36.9191 53.5076 36.4193 52.8369 35.9764C52.1663 35.5208 51.2678 35.0969 50.1417 34.7047C48.522 34.1352 47.1048 33.4962 45.89 32.7876C44.6879 32.0664 43.7515 31.1806 43.0809 30.1303C42.4229 29.0674 42.0939 27.7451 42.0939 26.1634C42.0939 24.607 42.4482 23.2594 43.1568 22.1205C43.8781 20.9817 44.8777 20.1023 46.1557 19.4822C47.4338 18.8622 48.9269 18.5522 50.6352 18.5522C51.9511 18.5522 53.1343 18.7483 54.1845 19.1406C55.2474 19.5329 56.1522 20.1086 56.8988 20.8678C57.6453 21.627 58.2147 22.5634 58.607 23.6769C59.0119 24.7778 59.2144 26.0432 59.2144 27.4731H54.659C54.659 26.6632 54.5641 25.942 54.3743 25.3093C54.1972 24.6639 53.9315 24.1198 53.5771 23.6769C53.2228 23.2214 52.7926 22.8734 52.2865 22.633C51.793 22.3926 51.2299 22.2724 50.5972 22.2724C49.6988 22.2724 48.9585 22.4432 48.3765 22.7849C47.7944 23.1139 47.3642 23.5694 47.0858 24.1515C46.8201 24.7335 46.6872 25.3979 46.6872 26.1444C46.6872 26.8657 46.8264 27.4984 47.1048 28.0425C47.3831 28.5866 47.8577 29.0801 48.5283 29.523C49.2116 29.9532 50.148 30.3897 51.3374 30.8326C52.9698 31.4147 54.3807 32.0664 55.5701 32.7876C56.7722 33.4962 57.6959 34.3757 58.3413 35.4259C58.9993 36.4635 59.3283 37.7732 59.3283 39.3549C59.3283 40.9872 58.9487 42.3728 58.1894 43.5117C57.4429 44.6505 56.3926 45.5173 55.0387 46.112C53.6974 46.6941 52.1346 46.9851 50.3504 46.9851C49.2243 46.9851 48.1044 46.8396 46.9909 46.5486C45.89 46.2449 44.8904 45.7514 43.992 45.0681C43.0935 44.3848 42.3786 43.48 41.8471 42.3538C41.3157 41.215 41.05 39.8231 41.05 38.1781H45.6433C45.6433 39.1651 45.7761 39.9876 46.0419 40.6456C46.3076 41.3036 46.6682 41.8224 47.1237 42.202C47.5793 42.5816 48.0854 42.8537 48.6422 43.0182C49.2116 43.1827 49.781 43.2649 50.3504 43.2649C51.2995 43.2649 52.0967 43.1067 52.742 42.7904C53.4 42.4614 53.8935 42.0059 54.2225 41.4238C54.5641 40.8291 54.735 40.1521 54.735 39.3929Z" fill="#BAFF66"/>
<path fill-rule="evenodd" clip-rule="evenodd" d="M91.6145 48.3349L59.5913 69.9319L37.7486 56.0983L1.45303 76.9135L0.000200861 74.7342L37.7991 52.6908L59.5413 66.4609L89.9898 45.9259L91.6145 48.3349Z" fill="#BAFF66"/>
<path d="M98.6756 39.6038C99.7819 39.4396 100.651 40.5346 100.24 41.5747L95.8478 52.6908C95.4368 53.731 94.054 53.9362 93.3587 53.0602L85.928 43.6983C85.2327 42.8223 85.7464 41.5222 86.8527 41.358L98.6756 39.6038Z" fill="#BAFF66"/>
</svg>
