<svg width="102" height="77" viewBox="0 0 102 77" fill="none" xmlns="http://www.w3.org/2000/svg">
    <path d="M81.7292 31.9623C81.7292 49.6145 67.4192 63.9245 49.7668 63.9245C32.1145 63.9245 17.8045 49.6145 17.8045 31.9623C17.8045 14.31 32.1145 0 49.7668 0C67.4192 0 81.7292 14.31 81.7292 31.9623Z"
          fill="#263147"/>
    <path d="M52.2294 14.5283V20.2035H49.3064V14.5283H52.2294ZM51.8688 45.5236V50.6104H48.9648V45.5236H51.8688ZM54.7349 39.3929C54.7349 38.659 54.583 38.0199 54.2793 37.4758C53.9883 36.9191 53.5075 36.4192 52.8368 35.9764C52.1662 35.5208 51.2677 35.0969 50.1416 34.7047C48.5219 34.1353 47.1047 33.4962 45.8899 32.7876C44.6878 32.0664 43.7514 31.1806 43.0808 30.1303C42.4228 29.0674 42.0938 27.7451 42.0938 26.1634C42.0938 24.607 42.4481 23.2594 43.1567 22.1205C43.878 20.9817 44.8776 20.1023 46.1556 19.4822C47.4337 18.8622 48.9268 18.5522 50.6351 18.5522C51.951 18.5522 53.1342 18.7483 54.1844 19.1406C55.2473 19.5329 56.1521 20.1086 56.8987 20.8678C57.6452 21.627 58.2147 22.5634 58.6069 23.6769C59.0118 24.7778 59.2143 26.0432 59.2143 27.4731H54.659C54.659 26.6632 54.564 25.942 54.3742 25.3093C54.1971 24.6639 53.9314 24.1198 53.5771 23.6769C53.2228 23.2214 52.7925 22.8734 52.2864 22.633C51.7929 22.3926 51.2298 22.2724 50.5971 22.2724C49.6987 22.2724 48.9584 22.4432 48.3764 22.7849C47.7943 23.1139 47.3641 23.5694 47.0857 24.1515C46.82 24.7335 46.6871 25.3979 46.6871 26.1444C46.6871 26.8657 46.8263 27.4984 47.1047 28.0425C47.383 28.5866 47.8576 29.0801 48.5282 29.523C49.2115 29.9532 50.1479 30.3897 51.3373 30.8326C52.9697 31.4147 54.3806 32.0664 55.57 32.7876C56.7721 33.4962 57.6959 34.3757 58.3412 35.4259C58.9992 36.4635 59.3282 37.7732 59.3282 39.3549C59.3282 40.9872 58.9486 42.3728 58.1893 43.5117C57.4428 44.6505 56.3925 45.5173 55.0386 46.112C53.6973 46.6941 52.1345 46.9851 50.3504 46.9851C49.2242 46.9851 48.1043 46.8396 46.9908 46.5486C45.8899 46.2449 44.8903 45.7514 43.9918 45.0681C43.0934 44.3848 42.3785 43.48 41.847 42.3538C41.3156 41.215 41.0498 39.8231 41.0498 38.1781H45.6432C45.6432 39.1651 45.776 39.9876 46.0417 40.6456C46.3075 41.3036 46.6681 41.8224 47.1236 42.202C47.5792 42.5816 48.0853 42.8537 48.6421 43.0182C49.2115 43.1827 49.7809 43.2649 50.3504 43.2649C51.2994 43.2649 52.0966 43.1067 52.7419 42.7904C53.3999 42.4614 53.8934 42.0059 54.2224 41.4238C54.564 40.8291 54.7349 40.1521 54.7349 39.3929Z"
          fill="#BAFF66"/>
    <path fill-rule="evenodd" clip-rule="evenodd"
          d="M91.6145 48.3349L59.5912 69.9319L37.7485 56.0983L1.45283 76.9135L0 74.7342L37.7989 52.6908L59.5412 66.4609L89.9898 45.9259L91.6145 48.3349Z"
          fill="#0855DA"/>
    <path d="M98.6756 39.6038C99.7819 39.4396 100.651 40.5346 100.24 41.5747L95.8478 52.6908C95.4368 53.731 94.054 53.9362 93.3587 53.0602L85.928 43.6983C85.2327 42.8223 85.7464 41.5222 86.8527 41.358L98.6756 39.6038Z"
          fill="#0855DA"/>
</svg>
