<svg width="486" height="158" viewBox="0 0 486 158" fill="none" xmlns="http://www.w3.org/2000/svg">
<path d="M0.969849 103V105C0.969849 105 2.35393 127.032 18 139.5C33.6461 151.968 27.2611 149.365 51 156.43C76.6207 159.805 104.715 156.101 135.224 156.43C186.584 156.985 408.194 156.43 408.194 156.43C408.194 156.43 435.322 168.364 460.5 148C471.29 139.273 481.54 122.921 484.5 112.5C492.053 85.9023 485.638 1 485.638 1H454.398L370.221 53.4929L336.745 37.646H318.758L285.282 13.3804L224.5 61H207L186.353 37.646L134 69.835H97.9167L73.5 94.9077L50.5 97L22 107.5L0.969849 103Z" fill="url(#paint0_linear_318_8225)" fill-opacity="0.14"/>
<path d="M0 103.5L18 106.613H22.2731L50.4076 95.8362L73.1932 94.7301L98.2375 71.025H133.769L185.893 38.6953L206.517 61.782H224.932L285.333 14.5564L317.743 38.6953H336.441L370.828 55.2362L454.435 1.92627H486" stroke="#BAFF66" stroke-width="2.07054"/>
<path d="M56.8696 134.325V125.38H62.0874V126.486H57.9753V129.3H61.342V130.406H57.9753V134.325H56.8696ZM66.0519 134.512C65.3934 134.512 64.8178 134.367 64.325 134.077C63.8364 133.783 63.4554 133.375 63.1821 132.853C62.9088 132.327 62.7721 131.714 62.7721 131.014C62.7721 130.281 62.9067 129.648 63.1759 129.114C63.445 128.575 63.8198 128.161 64.3002 127.871C64.7847 127.577 65.352 127.43 66.0022 127.43C66.6772 127.43 67.2507 127.586 67.7228 127.896C68.199 128.207 68.5551 128.65 68.7912 129.225C69.0314 129.801 69.1349 130.486 69.1018 131.282H67.9837V130.884C67.9712 130.06 67.8035 129.445 67.4805 129.039C67.1575 128.629 66.6772 128.424 66.0394 128.424C65.3562 128.424 64.8364 128.644 64.4803 129.083C64.1242 129.522 63.9461 130.151 63.9461 130.971C63.9461 131.762 64.1242 132.375 64.4803 132.81C64.8364 133.244 65.3437 133.462 66.0022 133.462C66.4453 133.462 66.8304 133.36 67.1575 133.157C67.4847 132.954 67.7414 132.663 67.9278 132.282L68.99 132.648C68.7291 133.24 68.3357 133.7 67.8097 134.027C67.288 134.35 66.702 134.512 66.0519 134.512ZM63.5734 131.282V130.393H68.5303V131.282H63.5734ZM73.6899 134.512C73.0605 134.512 72.5304 134.356 72.0997 134.046C71.6691 133.731 71.3419 133.306 71.1183 132.772C70.8988 132.234 70.7891 131.631 70.7891 130.965C70.7891 130.29 70.8988 129.685 71.1183 129.151C71.3419 128.617 71.6691 128.196 72.0997 127.89C72.5346 127.584 73.0667 127.43 73.6961 127.43C74.3173 127.43 74.8515 127.586 75.2987 127.896C75.7501 128.203 76.0959 128.623 76.3361 129.157C76.5762 129.691 76.6963 130.294 76.6963 130.965C76.6963 131.636 76.5762 132.238 76.3361 132.772C76.0959 133.306 75.7501 133.731 75.2987 134.046C74.8515 134.356 74.3152 134.512 73.6899 134.512ZM70.6027 134.325V125.38H71.7146V129.387H71.5904V134.325H70.6027ZM73.5533 133.499C73.9964 133.499 74.3628 133.387 74.6527 133.164C74.9426 132.94 75.16 132.638 75.3049 132.257C75.4499 131.872 75.5223 131.441 75.5223 130.965C75.5223 130.493 75.4499 130.066 75.3049 129.685C75.1641 129.304 74.9447 129.002 74.6465 128.778C74.3525 128.555 73.9777 128.443 73.5222 128.443C73.0874 128.443 72.7271 128.55 72.4414 128.766C72.1556 128.977 71.9424 129.273 71.8016 129.654C71.6608 130.031 71.5904 130.468 71.5904 130.965C71.5904 131.453 71.6587 131.89 71.7954 132.275C71.9362 132.656 72.1515 132.957 72.4414 133.176C72.7313 133.391 73.1019 133.499 73.5533 133.499ZM78.1823 134.325V127.617H79.1699V129.238L79.0084 129.027C79.0871 128.82 79.1886 128.629 79.3128 128.455C79.4412 128.281 79.584 128.138 79.7414 128.027C79.9153 127.886 80.112 127.778 80.3315 127.704C80.551 127.629 80.7746 127.586 81.0024 127.573C81.2301 127.557 81.4434 127.571 81.6421 127.617V128.654C81.4102 128.592 81.1556 128.575 80.8781 128.604C80.6007 128.633 80.3439 128.735 80.1079 128.909C79.8925 129.062 79.7248 129.248 79.6047 129.468C79.4888 129.687 79.408 129.925 79.3625 130.182C79.3169 130.435 79.2942 130.693 79.2942 130.958V134.325H78.1823ZM85.4877 134.499C85.0571 134.499 84.6864 134.431 84.3758 134.294C84.0694 134.157 83.8147 133.975 83.6118 133.748C83.4089 133.52 83.2495 133.267 83.1335 132.99C83.0176 132.712 82.9347 132.429 82.8851 132.139C82.8395 131.849 82.8167 131.578 82.8167 131.325V127.617H83.9348V130.977C83.9348 131.292 83.9638 131.596 84.0218 131.89C84.0798 132.184 84.1771 132.449 84.3137 132.685C84.4545 132.921 84.6409 133.108 84.8728 133.244C85.1088 133.381 85.4028 133.449 85.7548 133.449C86.0323 133.449 86.2849 133.402 86.5126 133.306C86.7404 133.211 86.935 133.07 87.0965 132.884C87.258 132.694 87.3823 132.453 87.4692 132.164C87.5562 131.874 87.5997 131.536 87.5997 131.151L88.3264 131.375C88.3264 132.021 88.2084 132.578 87.9724 133.046C87.7405 133.514 87.4113 133.874 86.9847 134.126C86.5623 134.375 86.0633 134.499 85.4877 134.499ZM87.7239 134.325V132.53H87.5997V127.617H88.7116V134.325H87.7239ZM92.4819 134.512C91.9808 134.512 91.5605 134.42 91.221 134.238C90.8855 134.052 90.6308 133.808 90.4569 133.505C90.2871 133.203 90.2022 132.872 90.2022 132.511C90.2022 132.159 90.2685 131.855 90.401 131.598C90.5377 131.337 90.7282 131.122 90.9725 130.952C91.2168 130.778 91.5088 130.642 91.8483 130.542C92.1672 130.455 92.5233 130.381 92.9167 130.319C93.3143 130.252 93.716 130.192 94.1218 130.139C94.5276 130.085 94.9065 130.033 95.2585 129.983L94.861 130.213C94.8734 129.617 94.7533 129.176 94.5007 128.89C94.2522 128.604 93.8216 128.461 93.2087 128.461C92.8028 128.461 92.4467 128.555 92.1403 128.741C91.838 128.923 91.6247 129.221 91.5005 129.635L90.4507 129.319C90.6122 128.731 90.9249 128.269 91.3887 127.933C91.8525 127.598 92.4633 127.43 93.2211 127.43C93.8298 127.43 94.3516 127.54 94.7864 127.76C95.2254 127.975 95.5401 128.302 95.7306 128.741C95.8258 128.948 95.8859 129.174 95.9107 129.418C95.9356 129.658 95.948 129.911 95.948 130.176V134.325H94.9666V132.716L95.1964 132.865C94.9438 133.408 94.5897 133.818 94.1342 134.095C93.6828 134.373 93.1321 134.512 92.4819 134.512ZM92.6496 133.586C93.0472 133.586 93.3909 133.516 93.6808 133.375C93.9748 133.23 94.2108 133.041 94.3889 132.81C94.5669 132.574 94.6829 132.317 94.7367 132.039C94.7988 131.832 94.832 131.602 94.8361 131.35C94.8444 131.093 94.8485 130.896 94.8485 130.76L95.2337 130.927C94.8734 130.977 94.5193 131.025 94.1715 131.07C93.8236 131.116 93.4944 131.166 93.1838 131.219C92.8732 131.269 92.5937 131.329 92.3453 131.4C92.163 131.457 91.9912 131.532 91.8297 131.623C91.6723 131.714 91.544 131.832 91.4446 131.977C91.3493 132.118 91.3017 132.294 91.3017 132.505C91.3017 132.687 91.3473 132.861 91.4384 133.027C91.5336 133.193 91.6785 133.327 91.8732 133.431C92.0719 133.534 92.3308 133.586 92.6496 133.586ZM97.6872 134.325V127.617H98.6749V129.238L98.5134 129.027C98.5921 128.82 98.6935 128.629 98.8178 128.455C98.9461 128.281 99.089 128.138 99.2464 128.027C99.4203 127.886 99.617 127.778 99.8365 127.704C100.056 127.629 100.28 127.586 100.507 127.573C100.735 127.557 100.948 127.571 101.147 127.617V128.654C100.915 128.592 100.661 128.575 100.383 128.604C100.106 128.633 99.8489 128.735 99.6129 128.909C99.3975 129.062 99.2298 129.248 99.1097 129.468C98.9938 129.687 98.913 129.925 98.8675 130.182C98.8219 130.435 98.7991 130.693 98.7991 130.958V134.325H97.6872ZM103.256 137.307L104.555 133.779L104.573 134.822L101.641 127.617H102.803L105.101 133.412H104.704L106.859 127.617H107.983L104.331 137.307H103.256Z" fill="white"/>
<path d="M135.668 134.325V125.38H136.675L140.054 132.505L143.414 125.38H144.433V134.319H143.383V127.809L140.346 134.325H139.756L136.718 127.809V134.325H135.668ZM148.206 134.512C147.705 134.512 147.285 134.42 146.945 134.238C146.61 134.052 146.355 133.808 146.181 133.505C146.011 133.203 145.926 132.872 145.926 132.511C145.926 132.159 145.993 131.855 146.125 131.598C146.262 131.337 146.452 131.122 146.697 130.952C146.941 130.778 147.233 130.642 147.572 130.542C147.891 130.455 148.247 130.381 148.641 130.319C149.038 130.252 149.44 130.192 149.846 130.139C150.252 130.085 150.631 130.033 150.983 129.983L150.585 130.213C150.598 129.617 150.477 129.176 150.225 128.89C149.976 128.604 149.546 128.461 148.933 128.461C148.527 128.461 148.171 128.555 147.864 128.741C147.562 128.923 147.349 129.221 147.225 129.635L146.175 129.319C146.336 128.731 146.649 128.269 147.113 127.933C147.577 127.598 148.187 127.43 148.945 127.43C149.554 127.43 150.076 127.54 150.511 127.76C150.949 127.975 151.264 128.302 151.455 128.741C151.55 128.948 151.61 129.174 151.635 129.418C151.66 129.658 151.672 129.911 151.672 130.176V134.325H150.691V132.716L150.921 132.865C150.668 133.408 150.314 133.818 149.858 134.095C149.407 134.373 148.856 134.512 148.206 134.512ZM148.374 133.586C148.771 133.586 149.115 133.516 149.405 133.375C149.699 133.23 149.935 133.041 150.113 132.81C150.291 132.574 150.407 132.317 150.461 132.039C150.523 131.832 150.556 131.602 150.56 131.35C150.569 131.093 150.573 130.896 150.573 130.76L150.958 130.927C150.598 130.977 150.243 131.025 149.896 131.07C149.548 131.116 149.219 131.166 148.908 131.219C148.597 131.269 148.318 131.329 148.069 131.4C147.887 131.457 147.715 131.532 147.554 131.623C147.396 131.714 147.268 131.832 147.169 131.977C147.073 132.118 147.026 132.294 147.026 132.505C147.026 132.687 147.071 132.861 147.162 133.027C147.258 133.193 147.403 133.327 147.597 133.431C147.796 133.534 148.055 133.586 148.374 133.586ZM153.411 134.325V127.617H154.399V129.238L154.238 129.027C154.316 128.82 154.418 128.629 154.542 128.455C154.67 128.281 154.813 128.138 154.97 128.027C155.144 127.886 155.341 127.778 155.561 127.704C155.78 127.629 156.004 127.586 156.231 127.573C156.459 127.557 156.672 127.571 156.871 127.617V128.654C156.639 128.592 156.385 128.575 156.107 128.604C155.83 128.633 155.573 128.735 155.337 128.909C155.122 129.062 154.954 129.248 154.834 129.468C154.718 129.687 154.637 129.925 154.592 130.182C154.546 130.435 154.523 130.693 154.523 130.958V134.325H153.411ZM160.875 134.512C160.196 134.512 159.618 134.36 159.142 134.058C158.67 133.752 158.31 133.331 158.061 132.797C157.813 132.263 157.684 131.654 157.676 130.971C157.684 130.271 157.815 129.656 158.067 129.126C158.324 128.592 158.691 128.176 159.167 127.878C159.643 127.579 160.217 127.43 160.887 127.43C161.596 127.43 162.204 127.604 162.714 127.952C163.227 128.3 163.571 128.776 163.745 129.381L162.652 129.71C162.511 129.321 162.281 129.018 161.962 128.803C161.647 128.588 161.285 128.48 160.875 128.48C160.415 128.48 160.036 128.588 159.738 128.803C159.44 129.014 159.219 129.308 159.074 129.685C158.929 130.058 158.854 130.486 158.85 130.971C158.858 131.716 159.03 132.319 159.366 132.779C159.705 133.234 160.208 133.462 160.875 133.462C161.314 133.462 161.678 133.362 161.968 133.164C162.258 132.961 162.478 132.669 162.627 132.288L163.745 132.58C163.513 133.205 163.151 133.683 162.658 134.015C162.165 134.346 161.571 134.512 160.875 134.512ZM169.914 134.325V130.965C169.914 130.646 169.885 130.339 169.827 130.045C169.773 129.751 169.675 129.488 169.535 129.257C169.398 129.02 169.212 128.834 168.976 128.697C168.744 128.561 168.45 128.492 168.093 128.492C167.816 128.492 167.563 128.54 167.336 128.635C167.112 128.726 166.92 128.867 166.758 129.058C166.596 129.248 166.47 129.488 166.379 129.778C166.292 130.064 166.249 130.402 166.249 130.791L165.522 130.567C165.522 129.917 165.638 129.36 165.87 128.896C166.106 128.428 166.435 128.07 166.857 127.822C167.284 127.569 167.785 127.443 168.361 127.443C168.795 127.443 169.166 127.511 169.472 127.648C169.779 127.784 170.034 127.967 170.237 128.194C170.439 128.418 170.599 128.671 170.715 128.952C170.831 129.23 170.912 129.513 170.957 129.803C171.007 130.089 171.032 130.36 171.032 130.617V134.325H169.914ZM165.131 134.325V125.38H166.124V130.319H166.249V134.325H165.131Z" fill="white"/>
<path d="M198.317 134.325L201.311 125.38H202.851L205.845 134.325H204.696L201.895 126.026H202.243L199.466 134.325H198.317ZM199.758 132.232V131.195H204.404V132.232H199.758ZM210.163 134.512C209.533 134.512 209.003 134.356 208.572 134.046C208.142 133.731 207.815 133.306 207.591 132.772C207.372 132.234 207.262 131.631 207.262 130.965C207.262 130.29 207.372 129.685 207.591 129.151C207.815 128.617 208.142 128.196 208.572 127.89C209.007 127.584 209.539 127.43 210.169 127.43C210.79 127.43 211.324 127.586 211.771 127.896C212.223 128.203 212.569 128.623 212.809 129.157C213.049 129.691 213.169 130.294 213.169 130.965C213.169 131.636 213.049 132.238 212.809 132.772C212.569 133.306 212.223 133.731 211.771 134.046C211.324 134.356 210.788 134.512 210.163 134.512ZM207.075 137.307V127.617H208.063V132.555H208.187V137.307H207.075ZM210.026 133.499C210.469 133.499 210.836 133.387 211.125 133.164C211.415 132.94 211.633 132.638 211.778 132.257C211.923 131.872 211.995 131.441 211.995 130.965C211.995 130.493 211.923 130.066 211.778 129.685C211.637 129.304 211.417 129.002 211.119 128.778C210.825 128.555 210.45 128.443 209.995 128.443C209.56 128.443 209.2 128.55 208.914 128.766C208.628 128.977 208.415 129.273 208.274 129.654C208.133 130.031 208.063 130.468 208.063 130.965C208.063 131.453 208.131 131.89 208.268 132.275C208.409 132.656 208.624 132.957 208.914 133.176C209.204 133.391 209.575 133.499 210.026 133.499ZM214.655 134.325V127.617H215.643V129.238L215.481 129.027C215.56 128.82 215.661 128.629 215.785 128.455C215.914 128.281 216.057 128.138 216.214 128.027C216.388 127.886 216.585 127.778 216.804 127.704C217.024 127.629 217.247 127.586 217.475 127.573C217.703 127.557 217.916 127.571 218.115 127.617V128.654C217.883 128.592 217.628 128.575 217.351 128.604C217.073 128.633 216.817 128.735 216.581 128.909C216.365 129.062 216.198 129.248 216.077 129.468C215.961 129.687 215.881 129.925 215.835 130.182C215.79 130.435 215.767 130.693 215.767 130.958V134.325H214.655ZM219.538 126.43V125.287H220.644V126.43H219.538ZM219.538 134.325V127.617H220.644V134.325H219.538ZM222.756 134.325V125.194H223.861V134.325H222.756Z" fill="white"/>
<path d="M251.855 134.325V125.38H252.861L256.241 132.505L259.601 125.38H260.62V134.319H259.57V127.809L256.532 134.325H255.942L252.905 127.809V134.325H251.855ZM264.393 134.512C263.892 134.512 263.471 134.42 263.132 134.238C262.796 134.052 262.542 133.808 262.368 133.505C262.198 133.203 262.113 132.872 262.113 132.511C262.113 132.159 262.179 131.855 262.312 131.598C262.448 131.337 262.639 131.122 262.883 130.952C263.128 130.778 263.42 130.642 263.759 130.542C264.078 130.455 264.434 130.381 264.827 130.319C265.225 130.252 265.627 130.192 266.033 130.139C266.438 130.085 266.817 130.033 267.169 129.983L266.772 130.213C266.784 129.617 266.664 129.176 266.411 128.89C266.163 128.604 265.732 128.461 265.119 128.461C264.714 128.461 264.357 128.555 264.051 128.741C263.749 128.923 263.535 129.221 263.411 129.635L262.361 129.319C262.523 128.731 262.836 128.269 263.299 127.933C263.763 127.598 264.374 127.43 265.132 127.43C265.741 127.43 266.262 127.54 266.697 127.76C267.136 127.975 267.451 128.302 267.641 128.741C267.737 128.948 267.797 129.174 267.821 129.418C267.846 129.658 267.859 129.911 267.859 130.176V134.325H266.877V132.716L267.107 132.865C266.855 133.408 266.5 133.818 266.045 134.095C265.594 134.373 265.043 134.512 264.393 134.512ZM264.56 133.586C264.958 133.586 265.302 133.516 265.592 133.375C265.886 133.23 266.122 133.041 266.3 132.81C266.478 132.574 266.594 132.317 266.647 132.039C266.71 131.832 266.743 131.602 266.747 131.35C266.755 131.093 266.759 130.896 266.759 130.76L267.144 130.927C266.784 130.977 266.43 131.025 266.082 131.07C265.734 131.116 265.405 131.166 265.095 131.219C264.784 131.269 264.504 131.329 264.256 131.4C264.074 131.457 263.902 131.532 263.74 131.623C263.583 131.714 263.455 131.832 263.355 131.977C263.26 132.118 263.212 132.294 263.212 132.505C263.212 132.687 263.258 132.861 263.349 133.027C263.444 133.193 263.589 133.327 263.784 133.431C263.983 133.534 264.242 133.586 264.56 133.586ZM270.154 137.307L271.452 133.779L271.471 134.822L268.539 127.617H269.7L271.999 133.412H271.601L273.756 127.617H274.881L271.228 137.307H270.154Z" fill="white"/>
<path d="M304.317 134.505C303.691 134.505 303.161 134.336 302.727 133.996C302.292 133.656 301.994 133.201 301.832 132.629L302.931 132.369C302.998 132.671 303.157 132.928 303.41 133.139C303.667 133.35 303.961 133.456 304.292 133.456C304.507 133.456 304.727 133.404 304.95 133.3C305.174 133.193 305.346 133.019 305.466 132.779C305.549 132.613 305.596 132.431 305.609 132.232C305.621 132.029 305.627 131.791 305.627 131.518V125.38H306.745V131.518C306.745 131.774 306.743 132.004 306.739 132.207C306.739 132.41 306.719 132.605 306.677 132.791C306.64 132.973 306.565 133.159 306.453 133.35C306.23 133.743 305.93 134.035 305.553 134.226C305.18 134.412 304.768 134.505 304.317 134.505ZM311.281 134.499C310.85 134.499 310.48 134.431 310.169 134.294C309.863 134.157 309.608 133.975 309.405 133.748C309.202 133.52 309.043 133.267 308.927 132.99C308.811 132.712 308.728 132.429 308.678 132.139C308.633 131.849 308.61 131.578 308.61 131.325V127.617H309.728V130.977C309.728 131.292 309.757 131.596 309.815 131.89C309.873 132.184 309.97 132.449 310.107 132.685C310.248 132.921 310.434 133.108 310.666 133.244C310.902 133.381 311.196 133.449 311.548 133.449C311.826 133.449 312.078 133.402 312.306 133.306C312.534 133.211 312.728 133.07 312.89 132.884C313.051 132.694 313.176 132.453 313.262 132.164C313.349 131.874 313.393 131.536 313.393 131.151L314.12 131.375C314.12 132.021 314.002 132.578 313.766 133.046C313.534 133.514 313.205 133.874 312.778 134.126C312.356 134.375 311.857 134.499 311.281 134.499ZM313.517 134.325V132.53H313.393V127.617H314.505V134.325H313.517ZM321.145 134.325V130.965C321.145 130.646 321.116 130.339 321.058 130.045C321.004 129.751 320.907 129.488 320.766 129.257C320.629 129.02 320.443 128.834 320.207 128.697C319.975 128.561 319.681 128.492 319.325 128.492C319.047 128.492 318.795 128.54 318.567 128.635C318.343 128.726 318.151 128.867 317.989 129.058C317.828 129.248 317.702 129.488 317.611 129.778C317.524 130.064 317.48 130.402 317.48 130.791L316.753 130.567C316.753 129.917 316.869 129.36 317.101 128.896C317.337 128.428 317.666 128.07 318.089 127.822C318.515 127.569 319.016 127.443 319.592 127.443C320.027 127.443 320.397 127.511 320.704 127.648C321.01 127.784 321.265 127.967 321.468 128.194C321.671 128.418 321.83 128.671 321.946 128.952C322.062 129.23 322.143 129.513 322.188 129.803C322.238 130.089 322.263 130.36 322.263 130.617V134.325H321.145ZM316.362 134.325V127.617H317.356V129.412H317.48V134.325H316.362ZM326.849 134.512C326.19 134.512 325.615 134.367 325.122 134.077C324.633 133.783 324.252 133.375 323.979 132.853C323.705 132.327 323.569 131.714 323.569 131.014C323.569 130.281 323.703 129.648 323.973 129.114C324.242 128.575 324.617 128.161 325.097 127.871C325.581 127.577 326.149 127.43 326.799 127.43C327.474 127.43 328.047 127.586 328.519 127.896C328.996 128.207 329.352 128.65 329.588 129.225C329.828 129.801 329.932 130.486 329.898 131.282H328.78V130.884C328.768 130.06 328.6 129.445 328.277 129.039C327.954 128.629 327.474 128.424 326.836 128.424C326.153 128.424 325.633 128.644 325.277 129.083C324.921 129.522 324.743 130.151 324.743 130.971C324.743 131.762 324.921 132.375 325.277 132.81C325.633 133.244 326.14 133.462 326.799 133.462C327.242 133.462 327.627 133.36 327.954 133.157C328.281 132.954 328.538 132.663 328.724 132.282L329.787 132.648C329.526 133.24 329.132 133.7 328.606 134.027C328.085 134.35 327.499 134.512 326.849 134.512ZM324.37 131.282V130.393H329.327V131.282H324.37Z" fill="white"/>
<path d="M359.304 134.505C358.679 134.505 358.149 134.336 357.714 133.996C357.279 133.656 356.981 133.201 356.82 132.629L357.919 132.369C357.985 132.671 358.145 132.928 358.397 133.139C358.654 133.35 358.948 133.456 359.279 133.456C359.495 133.456 359.714 133.404 359.938 133.3C360.161 133.193 360.333 133.019 360.453 132.779C360.536 132.613 360.584 132.431 360.596 132.232C360.609 132.029 360.615 131.791 360.615 131.518V125.38H361.733V131.518C361.733 131.774 361.731 132.004 361.727 132.207C361.727 132.41 361.706 132.605 361.665 132.791C361.627 132.973 361.553 133.159 361.441 133.35C361.217 133.743 360.917 134.035 360.54 134.226C360.168 134.412 359.756 134.505 359.304 134.505ZM366.269 134.499C365.838 134.499 365.467 134.431 365.157 134.294C364.85 134.157 364.596 133.975 364.393 133.748C364.19 133.52 364.03 133.267 363.914 132.99C363.798 132.712 363.716 132.429 363.666 132.139C363.62 131.849 363.598 131.578 363.598 131.325V127.617H364.716V130.977C364.716 131.292 364.745 131.596 364.803 131.89C364.861 132.184 364.958 132.449 365.095 132.685C365.235 132.921 365.422 133.108 365.654 133.244C365.89 133.381 366.184 133.449 366.536 133.449C366.813 133.449 367.066 133.402 367.293 133.306C367.521 133.211 367.716 133.07 367.877 132.884C368.039 132.694 368.163 132.453 368.25 132.164C368.337 131.874 368.38 131.536 368.38 131.151L369.107 131.375C369.107 132.021 368.989 132.578 368.753 133.046C368.521 133.514 368.192 133.874 367.766 134.126C367.343 134.375 366.844 134.499 366.269 134.499ZM368.505 134.325V132.53H368.38V127.617H369.492V134.325H368.505ZM371.48 134.325V125.194H372.586V134.325H371.48ZM375.505 137.307L376.804 133.779L376.822 134.822L373.89 127.617H375.052L377.35 133.412H376.953L379.108 127.617H380.232L376.58 137.307H375.505Z" fill="white"/>
<path d="M406.879 134.325L409.873 125.38H411.414L414.408 134.325H413.259L410.457 126.026H410.805L408.028 134.325H406.879ZM408.32 132.232V131.195H412.967V132.232H408.32ZM418.191 134.499C417.76 134.499 417.389 134.431 417.079 134.294C416.772 134.157 416.518 133.975 416.315 133.748C416.112 133.52 415.952 133.267 415.836 132.99C415.721 132.712 415.638 132.429 415.588 132.139C415.542 131.849 415.52 131.578 415.52 131.325V127.617H416.638V130.977C416.638 131.292 416.667 131.596 416.725 131.89C416.783 132.184 416.88 132.449 417.017 132.685C417.157 132.921 417.344 133.108 417.576 133.244C417.812 133.381 418.106 133.449 418.458 133.449C418.735 133.449 418.988 133.402 419.216 133.306C419.443 133.211 419.638 133.07 419.799 132.884C419.961 132.694 420.085 132.453 420.172 132.164C420.259 131.874 420.303 131.536 420.303 131.151L421.029 131.375C421.029 132.021 420.911 132.578 420.675 133.046C420.443 133.514 420.114 133.874 419.688 134.126C419.265 134.375 418.766 134.499 418.191 134.499ZM420.427 134.325V132.53H420.303V127.617H421.414V134.325H420.427ZM425.992 137.493C425.64 137.493 425.297 137.439 424.961 137.332C424.626 137.224 424.317 137.06 424.036 136.841C423.758 136.626 423.526 136.352 423.34 136.021L424.352 135.487C424.518 135.814 424.752 136.052 425.054 136.201C425.361 136.35 425.676 136.425 425.999 136.425C426.425 136.425 426.779 136.346 427.061 136.189C427.342 136.035 427.549 135.806 427.682 135.499C427.819 135.193 427.885 134.812 427.881 134.356V132.524H428.011V127.617H428.993V134.369C428.993 134.551 428.986 134.727 428.974 134.897C428.966 135.066 428.945 135.234 428.912 135.4C428.825 135.876 428.653 136.267 428.396 136.574C428.14 136.884 427.808 137.114 427.402 137.263C426.997 137.417 426.527 137.493 425.992 137.493ZM425.912 134.512C425.286 134.512 424.75 134.356 424.303 134.046C423.856 133.731 423.51 133.306 423.265 132.772C423.025 132.238 422.905 131.636 422.905 130.965C422.905 130.294 423.025 129.691 423.265 129.157C423.51 128.623 423.856 128.203 424.303 127.896C424.75 127.586 425.284 127.43 425.905 127.43C426.539 127.43 427.071 127.584 427.502 127.89C427.932 128.196 428.258 128.617 428.477 129.151C428.701 129.685 428.812 130.29 428.812 130.965C428.812 131.631 428.701 132.234 428.477 132.772C428.258 133.306 427.932 133.731 427.502 134.046C427.071 134.356 426.541 134.512 425.912 134.512ZM426.048 133.499C426.5 133.499 426.87 133.391 427.16 133.176C427.45 132.957 427.663 132.656 427.8 132.275C427.941 131.89 428.011 131.453 428.011 130.965C428.011 130.468 427.941 130.031 427.8 129.654C427.663 129.273 427.452 128.977 427.166 128.766C426.881 128.55 426.518 128.443 426.079 128.443C425.624 128.443 425.247 128.555 424.949 128.778C424.655 129.002 424.435 129.304 424.29 129.685C424.15 130.066 424.079 130.493 424.079 130.965C424.079 131.441 424.152 131.872 424.297 132.257C424.442 132.638 424.659 132.94 424.949 133.164C425.243 133.387 425.609 133.499 426.048 133.499ZM433.398 134.499C432.967 134.499 432.597 134.431 432.286 134.294C431.98 134.157 431.725 133.975 431.522 133.748C431.319 133.52 431.16 133.267 431.044 132.99C430.928 132.712 430.845 132.429 430.795 132.139C430.75 131.849 430.727 131.578 430.727 131.325V127.617H431.845V130.977C431.845 131.292 431.874 131.596 431.932 131.89C431.99 132.184 432.087 132.449 432.224 132.685C432.365 132.921 432.551 133.108 432.783 133.244C433.019 133.381 433.313 133.449 433.665 133.449C433.943 133.449 434.195 133.402 434.423 133.306C434.651 133.211 434.845 133.07 435.007 132.884C435.168 132.694 435.293 132.453 435.379 132.164C435.466 131.874 435.51 131.536 435.51 131.151L436.237 131.375C436.237 132.021 436.119 132.578 435.883 133.046C435.651 133.514 435.321 133.874 434.895 134.126C434.473 134.375 433.974 134.499 433.398 134.499ZM435.634 134.325V132.53H435.51V127.617H436.622V134.325H435.634ZM441.02 134.505C440.22 134.505 439.564 134.331 439.05 133.984C438.541 133.632 438.228 133.141 438.112 132.511L439.243 132.331C439.334 132.696 439.543 132.986 439.87 133.201C440.198 133.412 440.603 133.518 441.088 133.518C441.548 133.518 441.908 133.422 442.169 133.232C442.43 133.041 442.56 132.783 442.56 132.455C442.56 132.265 442.517 132.112 442.43 131.996C442.343 131.876 442.162 131.764 441.889 131.66C441.62 131.557 441.212 131.433 440.665 131.288C440.073 131.13 439.607 130.967 439.268 130.797C438.928 130.627 438.686 130.431 438.541 130.207C438.396 129.983 438.324 129.712 438.324 129.393C438.324 129 438.431 128.656 438.647 128.362C438.862 128.064 439.162 127.834 439.547 127.673C439.937 127.511 440.388 127.43 440.902 127.43C441.411 127.43 441.866 127.511 442.268 127.673C442.67 127.834 442.993 128.064 443.237 128.362C443.486 128.656 443.633 129 443.678 129.393L442.548 129.598C442.494 129.238 442.32 128.954 442.026 128.747C441.736 128.54 441.361 128.43 440.902 128.418C440.467 128.401 440.113 128.478 439.839 128.648C439.57 128.818 439.436 129.047 439.436 129.337C439.436 129.499 439.485 129.637 439.585 129.753C439.688 129.869 439.877 129.979 440.15 130.083C440.427 130.186 440.829 130.304 441.355 130.437C441.947 130.586 442.413 130.749 442.753 130.927C443.096 131.101 443.341 131.308 443.486 131.549C443.63 131.785 443.703 132.077 443.703 132.424C443.703 133.07 443.465 133.58 442.989 133.952C442.512 134.321 441.856 134.505 441.02 134.505ZM448.943 134.325C448.545 134.404 448.152 134.435 447.763 134.418C447.377 134.406 447.034 134.329 446.731 134.189C446.429 134.044 446.199 133.82 446.042 133.518C445.909 133.253 445.837 132.986 445.825 132.716C445.816 132.443 445.812 132.135 445.812 131.791V125.753H446.918V131.741C446.918 132.014 446.92 132.248 446.924 132.443C446.932 132.638 446.976 132.805 447.054 132.946C447.203 133.211 447.44 133.367 447.763 133.412C448.09 133.458 448.483 133.445 448.943 133.375V134.325ZM444.452 128.53V127.617H448.943V128.53H444.452Z" fill="white"/>
<line x1="314.638" y1="119" x2="314.638" y2="40" stroke="url(#paint1_linear_318_8225)" stroke-width="1.03527" stroke-dasharray="2.07 2.07"/>
<line x1="140.482" y1="119" x2="140.482" y2="67" stroke="url(#paint2_linear_318_8225)" stroke-width="1.03527" stroke-dasharray="2.07 2.07"/>
<line x1="62.4824" y1="119" x2="62.4824" y2="95" stroke="url(#paint3_linear_318_8225)" stroke-width="1.03527" stroke-dasharray="2.07 2.07"/>
<line x1="203.147" y1="119" x2="203.147" y2="63" stroke="url(#paint4_linear_318_8225)" stroke-width="1.03527" stroke-dasharray="2.07 2.07"/>
<line x1="257.33" y1="119" x2="257.33" y2="35" stroke="url(#paint5_linear_318_8225)" stroke-width="1.03527" stroke-dasharray="2.07 2.07"/>
<line x1="370.904" y1="119" x2="370.904" y2="55" stroke="url(#paint6_linear_318_8225)" stroke-width="1.03527" stroke-dasharray="2.07 2.07"/>
<line x1="435.506" y1="112" x2="435.506" y2="16" stroke="url(#paint7_linear_318_8225)" stroke-width="1.03527" stroke-dasharray="2.07 2.07"/>
<defs>
<linearGradient id="paint0_linear_318_8225" x1="269.564" y1="23.4418" x2="265.906" y2="163.816" gradientUnits="userSpaceOnUse">
<stop stop-color="#BAFF66"/>
<stop offset="1" stop-color="white" stop-opacity="0"/>
</linearGradient>
<linearGradient id="paint1_linear_318_8225" x1="315.655" y1="40" x2="315.655" y2="119" gradientUnits="userSpaceOnUse">
<stop stop-color="#BAFF66"/>
<stop offset="1" stop-color="white" stop-opacity="0"/>
</linearGradient>
<linearGradient id="paint2_linear_318_8225" x1="141.5" y1="67" x2="141.5" y2="119" gradientUnits="userSpaceOnUse">
<stop stop-color="#BAFF66"/>
<stop offset="1" stop-color="white" stop-opacity="0"/>
</linearGradient>
<linearGradient id="paint3_linear_318_8225" x1="63.5" y1="95" x2="63.5" y2="119" gradientUnits="userSpaceOnUse">
<stop stop-color="#BAFF66"/>
<stop offset="1" stop-color="white" stop-opacity="0"/>
</linearGradient>
<linearGradient id="paint4_linear_318_8225" x1="204.165" y1="63" x2="204.165" y2="119" gradientUnits="userSpaceOnUse">
<stop stop-color="#BAFF66"/>
<stop offset="1" stop-color="white" stop-opacity="0"/>
</linearGradient>
<linearGradient id="paint5_linear_318_8225" x1="258.348" y1="35" x2="258.348" y2="119" gradientUnits="userSpaceOnUse">
<stop stop-color="#BAFF66"/>
<stop offset="1" stop-color="white" stop-opacity="0"/>
</linearGradient>
<linearGradient id="paint6_linear_318_8225" x1="371.922" y1="55" x2="371.922" y2="119" gradientUnits="userSpaceOnUse">
<stop stop-color="#BAFF66"/>
<stop offset="1" stop-color="white" stop-opacity="0"/>
</linearGradient>
<linearGradient id="paint7_linear_318_8225" x1="436.523" y1="16" x2="436.523" y2="112" gradientUnits="userSpaceOnUse">
<stop stop-color="#BAFF66"/>
<stop offset="1" stop-color="white" stop-opacity="0"/>
</linearGradient>
</defs>
</svg>
