<svg width="230" height="97" viewBox="0 0 230 97" fill="none" xmlns="http://www.w3.org/2000/svg">
<path fill-rule="evenodd" clip-rule="evenodd" d="M228.639 92.9014C228.639 94.4105 227.421 95.6338 225.917 95.6338L194.615 95.6338C193.864 95.6338 193.255 95.0221 193.255 94.2676C193.255 93.5131 193.864 92.9014 194.615 92.9014L225.917 92.9014L225.917 66.9436C225.917 66.1891 226.527 65.5774 227.278 65.5774C228.03 65.5774 228.639 66.1891 228.639 66.9436L228.639 92.9014Z" fill="#171717"/>
<path fill-rule="evenodd" clip-rule="evenodd" d="M1.36084 4.09861C1.36084 2.58955 2.57947 1.36621 4.08273 1.36621L35.3845 1.36621C36.1361 1.36621 36.7455 1.97788 36.7455 2.73241C36.7455 3.48694 36.1361 4.09861 35.3845 4.09861L4.08273 4.09861L4.08273 30.0564C4.08273 30.8109 3.47342 31.4225 2.72179 31.4225C1.97016 31.4225 1.36084 30.8109 1.36084 30.0564L1.36084 4.09861Z" fill="#171717"/>
<path d="M217.192 40.8769C214.753 43.3689 210.877 44.4181 206.479 44.4181C197.202 44.4181 191.41 40.5709 191.41 31.4775C191.41 23.9142 196.854 18.5806 206.479 18.5806C213.534 18.5806 220.197 20.5479 221.46 27.2805H213.751C212.706 24.1328 209.745 23.2147 207.262 23.2147C200.991 23.2147 198.77 27.674 198.77 31.4775C198.77 35.281 200.991 39.7402 207.262 39.7402C211.051 39.7402 213.969 38.385 214.797 34.3192H208.613V30.0785H221.59V43.7186H217.192V40.8769Z" fill="#171717"/>
<path d="M179.697 18.9741H186.404V43.7187H178.869L165.02 26.45H164.933V43.7187H158.227V18.9741H166.24L179.653 36.2429H179.697V18.9741Z" fill="#171717"/>
<path d="M146.309 18.9741H153.234V43.7187H146.309V18.9741Z" fill="#171717"/>
<path d="M114.19 18.9741H130.086C138.796 18.9741 142.585 23.9143 142.585 31.3464C142.585 38.7785 138.665 43.7187 130.696 43.7187H114.19V18.9741ZM121.114 38.9971H128.823C133.396 38.9971 135.442 36.3303 135.442 31.1278C135.442 26.5374 133.439 23.6957 128.17 23.6957H121.114V38.9971Z" fill="#171717"/>
<path d="M102.477 18.9741H109.183V43.7187H101.649L87.8002 26.45H87.7131V43.7187H81.0063V18.9741H89.0196L102.433 36.2429H102.477V18.9741Z" fill="#171717"/>
<path d="M49.7241 18.9741H56.6486V33.1826C56.6486 35.6308 56.7357 39.6966 63.0941 39.6966C69.4524 39.6966 69.5831 35.6308 69.5831 33.1826V18.9741H76.464V34.8439C76.464 37.6418 76.1156 44.4182 63.0941 44.4182C50.0725 44.4182 49.7241 37.6418 49.7241 34.8439V18.9741Z" fill="#171717"/>
<path d="M24.0386 18.9741H46.8154V23.6957H30.9631V29.1168H45.8137V33.7946H30.9631V43.7187H24.0386V18.9741Z" fill="#171717"/>
<path d="M153.874 73.305L143.945 61.3262H152.263L157.881 69.0206L163.499 61.3262H171.817L161.887 73.305L172.688 86.0707H164.109L157.881 77.7205L151.653 86.0707H143.074L153.874 73.305Z" fill="#171717"/>
<path d="M131.196 80.9552H119.481L117.391 86.0702H109.944L121.136 61.3257H129.498L140.69 86.0702H133.243L131.196 80.9552ZM125.317 66.6593L121.31 76.4522H129.324L125.317 66.6593Z" fill="#171717"/>
<path d="M87.6567 66.0473V61.3257H113.482V66.0473H104.032V86.0703H97.1072V66.0473H87.6567Z" fill="#171717"/>
<path d="M75.8315 68.6705C75.396 65.4791 72.2168 65.1731 69.4732 65.1731C66.5988 65.1731 64.7262 66.3972 64.7262 68.0148C64.7262 69.3263 65.902 70.0695 67.6876 70.3318L76.3541 71.6871C80.9704 72.3866 84.498 74.0916 84.498 78.5509C84.498 83.0976 81.3188 86.7699 71.2587 86.7699C65.0746 86.7699 57.0178 86.0267 56.9307 78.376H64.7262C64.7697 81.7423 68.2973 82.3106 71.2587 82.3106C74.525 82.3106 76.7461 81.3926 76.7461 79.2504C76.7461 77.3705 75.1782 76.8459 72.4346 76.4524L66.1198 75.5343C61.6776 74.8785 57.4097 73.6107 57.4097 68.5831C57.4097 63.1183 62.026 60.8887 70.0393 60.8887C75.2653 60.8887 83.0608 61.763 83.4963 68.6705H75.8315Z" fill="#171717"/>
</svg>
