<svg width="168" height="71" viewBox="0 0 168 71" fill="none" xmlns="http://www.w3.org/2000/svg">
<path fill-rule="evenodd" clip-rule="evenodd" d="M167.006 68C167.006 69.1046 166.116 70 165.018 70L142.154 70C141.605 70 141.16 69.5523 141.16 69C141.16 68.4477 141.605 68 142.154 68L165.018 68L165.018 49C165.018 48.4477 165.463 48 166.012 48C166.561 48 167.006 48.4477 167.006 49L167.006 68Z" fill="#0855DA"/>
<path fill-rule="evenodd" clip-rule="evenodd" d="M0.994141 3C0.994141 1.89543 1.88427 1 2.98231 1L25.8462 1C26.3952 1 26.8403 1.44772 26.8403 2C26.8403 2.55228 26.3952 3 25.8462 3L2.98231 3L2.98231 22C2.98231 22.5523 2.53724 23 1.98822 23C1.43921 23 0.994141 22.5523 0.994141 22L0.994141 3Z" fill="#0855DA"/>
<path d="M158.644 29.9196C156.863 31.7436 154.032 32.5116 150.819 32.5116C144.043 32.5116 139.812 29.6956 139.812 23.0396C139.812 17.5036 143.789 13.5996 150.819 13.5996C155.972 13.5996 160.839 15.0396 161.762 19.9676H156.131C155.368 17.6636 153.205 16.9916 151.392 16.9916C146.811 16.9916 145.189 20.2556 145.189 23.0396C145.189 25.8236 146.811 29.0876 151.392 29.0876C154.159 29.0876 156.29 28.0956 156.895 25.1196H152.378V22.0156H161.857V31.9996H158.644V29.9196Z" fill="#171717"/>
<path d="M131.257 13.8877H136.156V31.9997H130.652L120.537 19.3597H120.473V31.9997H115.574V13.8877H121.427L131.225 26.5277H131.257V13.8877Z" fill="#171717"/>
<path d="M106.869 13.8877H111.927V31.9997H106.869V13.8877Z" fill="#171717"/>
<path d="M83.4082 13.8877H95.0191C101.381 13.8877 104.149 17.5037 104.149 22.9437C104.149 28.3837 101.286 31.9997 95.4644 31.9997H83.4082V13.8877ZM88.4661 28.5437H94.0966C97.4367 28.5437 98.9318 26.5917 98.9318 22.7837C98.9318 19.4237 97.4685 17.3437 93.6194 17.3437H88.4661V28.5437Z" fill="#171717"/>
<path d="M74.8526 13.8877H79.7514V31.9997H74.2482L64.1324 19.3597H64.0688V31.9997H59.1699V13.8877H65.0231L74.8208 26.5277H74.8526V13.8877Z" fill="#171717"/>
<path d="M36.3203 13.8877H41.3782V24.2877C41.3782 26.0797 41.4418 29.0557 46.0862 29.0557C50.7305 29.0557 50.826 26.0797 50.826 24.2877V13.8877H55.8521V25.5037C55.8521 27.5517 55.5976 32.5117 46.0862 32.5117C36.5748 32.5117 36.3203 27.5517 36.3203 25.5037V13.8877Z" fill="#171717"/>
<path d="M17.5586 13.8877H34.1956V17.3437H22.6165V21.3117H33.4639V24.7357H22.6165V31.9997H17.5586V13.8877Z" fill="#171717"/>
<path d="M112.395 53.6567L105.142 44.8887H111.218L115.321 50.5207L119.425 44.8887H125.501L118.248 53.6567L126.137 63.0007H119.87L115.321 56.8887L110.773 63.0007H104.506L112.395 53.6567Z" fill="#0855DA"/>
<path d="M95.8302 59.2567H87.2732L85.7463 63.0007H80.3066L88.482 44.8887H94.5896L102.765 63.0007H97.3253L95.8302 59.2567ZM91.5358 48.7927L88.6092 55.9607H94.4624L91.5358 48.7927Z" fill="#0855DA"/>
<path d="M64.0273 48.3447V44.8887H82.8911V48.3447H75.9881V63.0007H70.9303V48.3447H64.0273Z" fill="#0855DA"/>
<path d="M55.3898 50.2644C55.0717 47.9284 52.7495 47.7044 50.7455 47.7044C48.6459 47.7044 47.2781 48.6004 47.2781 49.7844C47.2781 50.7444 48.137 51.2884 49.4412 51.4804L55.7715 52.4724C59.1435 52.9844 61.7201 54.2324 61.7201 57.4964C61.7201 60.8244 59.398 63.5124 52.0497 63.5124C47.5326 63.5124 41.6476 62.9684 41.584 57.3684H47.2781C47.3099 59.8324 49.8866 60.2484 52.0497 60.2484C54.4355 60.2484 56.0578 59.5764 56.0578 58.0084C56.0578 56.6324 54.9126 56.2484 52.9086 55.9604L48.296 55.2884C45.0513 54.8084 41.9339 53.8804 41.9339 50.2004C41.9339 46.2004 45.3058 44.5684 51.159 44.5684C54.9763 44.5684 60.6704 45.2084 60.9885 50.2644H55.3898Z" fill="#0855DA"/>
</svg>
