<svg width="167" height="69" viewBox="0 0 167 69" fill="none" xmlns="http://www.w3.org/2000/svg">
<path d="M166 48L166 67C166 67.5523 165.552 68 165 68L142 68" stroke="#BAFF66" stroke-width="2" stroke-linecap="round"/>
<path d="M1 21L1 2C1 1.44772 1.44772 1 2 1L25 1" stroke="#BAFF66" stroke-width="2" stroke-linecap="round"/>
<path d="M158.59 28.9201C156.798 30.7441 153.95 31.5121 150.718 31.5121C143.902 31.5121 139.646 28.6961 139.646 22.0401C139.646 16.5041 143.646 12.6001 150.718 12.6001C155.902 12.6001 160.798 14.0401 161.726 18.9681H156.062C155.294 16.6641 153.118 15.9921 151.294 15.9921C146.686 15.9921 145.054 19.2561 145.054 22.0401C145.054 24.8241 146.686 28.0881 151.294 28.0881C154.078 28.0881 156.222 27.0961 156.83 24.1201H152.286V21.0161H161.822V31.0001H158.59V28.9201Z" fill="white"/>
<path d="M131.04 12.8882H135.968V31.0002H130.432L120.256 18.3602H120.192V31.0002H115.264V12.8882H121.152L131.008 25.5282H131.04V12.8882Z" fill="white"/>
<path d="M106.507 12.8882H111.595V31.0002H106.507V12.8882Z" fill="white"/>
<path d="M82.9053 12.8882H94.5853C100.985 12.8882 103.769 16.5042 103.769 21.9442C103.769 27.3842 100.889 31.0002 95.0333 31.0002H82.9053V12.8882ZM87.9933 27.5442H93.6573C97.0173 27.5442 98.5213 25.5922 98.5213 21.7842C98.5213 18.4242 97.0493 16.3442 93.1773 16.3442H87.9933V27.5442Z" fill="white"/>
<path d="M74.2985 12.8882H79.2265V31.0002H73.6905L63.5145 18.3602H63.4505V31.0002H58.5225V12.8882H64.4105L74.2665 25.5282H74.2985V12.8882Z" fill="white"/>
<path d="M35.5371 12.8882H40.6251V23.2882C40.6251 25.0802 40.6891 28.0562 45.3611 28.0562C50.0331 28.0562 50.1291 25.0802 50.1291 23.2882V12.8882H55.1851V24.5042C55.1851 26.5522 54.9291 31.5122 45.3611 31.5122C35.7931 31.5122 35.5371 26.5522 35.5371 24.5042V12.8882Z" fill="white"/>
<path d="M16.6641 12.8882H33.4001V16.3442H21.7521V20.3122H32.6641V23.7362H21.7521V31.0002H16.6641V12.8882Z" fill="white"/>
<path d="M112.065 52.6557L104.769 43.8877H110.881L115.009 49.5197L119.137 43.8877H125.249L117.953 52.6557L125.889 61.9997H119.585L115.009 55.8877L110.433 61.9997H104.129L112.065 52.6557Z" fill="#BAFF66"/>
<path d="M95.4012 58.2557H86.7932L85.2572 61.9997H79.7852L88.0092 43.8877H94.1532L102.377 61.9997H96.9052L95.4012 58.2557ZM91.0812 47.7917L88.1372 54.9597H94.0252L91.0812 47.7917Z" fill="#BAFF66"/>
<path d="M63.4092 47.3437V43.8877H82.3852V47.3437H75.4412V61.9997H70.3532V47.3437H63.4092Z" fill="#BAFF66"/>
<path d="M54.72 49.2639C54.4 46.9279 52.064 46.7039 50.048 46.7039C47.936 46.7039 46.56 47.5999 46.56 48.7839C46.56 49.7439 47.424 50.2879 48.736 50.4799L55.104 51.4719C58.496 51.9839 61.088 53.2319 61.088 56.4959C61.088 59.8239 58.752 62.5119 51.36 62.5119C46.816 62.5119 40.896 61.9679 40.832 56.3679H46.56C46.592 58.8319 49.184 59.2479 51.36 59.2479C53.76 59.2479 55.392 58.5759 55.392 57.0079C55.392 55.6319 54.24 55.2479 52.224 54.9599L47.584 54.2879C44.32 53.8079 41.184 52.8799 41.184 49.1999C41.184 45.1999 44.576 43.5679 50.464 43.5679C54.304 43.5679 60.032 44.2079 60.352 49.2639H54.72Z" fill="#BAFF66"/>
</svg>
